<svg xmlns="http://www.w3.org/2000/svg" viewBox="0 0 250 250"><title>ig</title><g id="Capa_2" data-name="Capa 2"><g id="Capa_1-2" data-name="Capa 1"><circle cx="125.03" cy="125.02" r="29.43"/><path d="M193.9,73a27.45,27.45,0,0,0-6.59-10.14,27.16,27.16,0,0,0-10.14-6.59c-3.11-1.21-7.76-2.66-16.39-3-9.28-.41-12.08-.52-35.68-.52s-26.36.1-35.68.52c-8.59.38-13.28,1.83-16.39,3a27.42,27.42,0,0,0-10.14,6.59A26.85,26.85,0,0,0,56.27,73c-1.21,3.11-2.66,7.76-3,16.39-.42,9.28-.52,12.11-.52,35.68s.1,26.36.52,35.68c.38,8.59,1.83,13.28,3,16.39a27.46,27.46,0,0,0,6.59,10.14A27.18,27.18,0,0,0,73,193.89c3.11,1.21,7.76,2.66,16.39,3,9.28.42,12.11.52,35.68.52s26.36-.1,35.68-.52c8.59-.38,13.28-1.83,16.39-3a29.3,29.3,0,0,0,16.77-16.77c1.21-3.11,2.66-7.76,3-16.39.41-9.32.52-12.08.52-35.64s-.1-26.36-.52-35.68C196.56,80.82,195.11,76.13,193.9,73ZM125,170.39A45.37,45.37,0,1,1,170.41,125,45.38,45.38,0,0,1,125,170.39ZM172.2,88.44a10.59,10.59,0,1,1,10.59-10.59A10.59,10.59,0,0,1,172.2,88.44Z"/><path d="M125,0A125,125,0,1,0,250,125,125,125,0,0,0,125,0Zm87.78,161.42c-.41,9.38-1.93,15.8-4.11,21.43a45.18,45.18,0,0,1-25.84,25.84c-5.59,2.17-12,3.69-21.43,4.11s-12.42.52-36.4.52-27-.1-36.4-.52-15.8-1.93-21.43-4.11a45.24,45.24,0,0,1-25.84-25.84c-2.17-5.59-3.69-12-4.11-21.43S36.71,149,36.71,125s.1-27,.55-36.44,1.93-15.8,4.11-21.43A43.49,43.49,0,0,1,51.54,51.53,43.09,43.09,0,0,1,67.21,41.31c5.59-2.17,12-3.69,21.43-4.11s12.42-.52,36.4-.52,27,.1,36.44.55,15.8,1.93,21.43,4.11a45.24,45.24,0,0,1,25.84,25.84c2.17,5.59,3.69,12,4.11,21.43s.45,12.42.45,36.4S213.19,152,212.78,161.42Z"/></g></g></svg>