<svg xmlns="http://www.w3.org/2000/svg" viewBox="0 0 1417.37 229.2"><defs><style>.cls-1{fill:#fff;}</style></defs><title>logo</title><g id="Capa_2" data-name="Capa 2"><g id="Capa_1-2" data-name="Capa 1"><g id="Capa_2-2" data-name="Capa 2"><g id="Capa_1-2-2" data-name="Capa 1-2"><path class="cls-1" d="M1332.29,100.44V43.74H1304v56.7h-76.3L1222,95l-82.22-78.55-.11-.11L1124.5,1.2v99.24h-28.35l-70.86-70.87h42.52L1096.15,1.2h-85L982.8,29.55l70.86,70.87h-141l40.92-70.88L969.92,1.2H798.52l16.36,28.34,40.92,70.9h-108L758.2,71.79,781.91,6.2l1.79-5H675.55L661.38,29.55h81.93l-7.25,20.07L724.77,80.85l-7.07,19.57H626.86l-22-58.78L589.8,1.2,574.7,41.64l-22,58.78H496.19V1.2L467.85,29.55v70.89H425.33V29.57L397,1.2v99.24H368.63v-85L340.29,1.2v99.24H287.15l-22.4-60L249.64,0l-15.1,40.44-22.4,60H113.39V43.74H85v56.7H0v28.34H85v56.7h28.35v-56.7h88.17l-26.67,71.55L194.52,228l37.15-99.22h35.94L304.77,228l19.67-27.67-26.71-71.55h42.56V228l28.35-28.35V128.78H397V228l28.35-28.35V128.78h42.52v70.87L496.19,228V128.78h46L515,201.53l19.68,27.67,37.6-100.42h35L644.93,229.2l19.67-27.67-27.16-72.75H707.3L697,157.44l-23.71,65.62L671.45,228H774.76l14.18-28.35h-77.1l7.25-20.07,11.29-31.23,7.07-19.57H863.54L806.26,228H839l45.23-78.34L929.45,228h32.73L904.9,128.78h148.73l-70.86,70.87L1011.12,228h85l-28.34-28.35h-42.52l70.86-70.87h28.35V228l15.13-15.13L1222,134.2l5.68-5.43H1304v56.71h28.34v-56.7h85.05V100.44Zm-1090,0,7.36-19.65L257,100.44Zm340.61,0L589.81,82l6.91,18.45ZM884.23,93l-36.6-63.4h73.2ZM1152.84,161V128.78h33.77Zm0-60.6V68.2l33.77,32.26Z"/></g></g></g></g></svg>