<svg xmlns="http://www.w3.org/2000/svg" viewBox="0 0 200 200"><title>behance</title><g id="Capa_2" data-name="Capa 2"><g id="Capa_1-2" data-name="Capa 1"><path d="M78.66,93.64H58.11V76.81H80s5.31,0,5.31,7.84S82.23,93.64,78.66,93.64Z"/><path d="M87.93,115.6c0,8.79-5.9,9.71-9,9.79H58.11V105.22H80S88,105.15,87.93,115.6Z"/><path d="M136.13,93.64c-11.62,0-13.23,11.59-13.23,11.59h24.71S147.79,93.64,136.13,93.64Zm0,0c-11.62,0-13.23,11.59-13.23,11.59h24.71S147.79,93.64,136.13,93.64ZM100,0A100,100,0,1,0,200,100,100,100,0,0,0,100,0Zm19.64,67.88h31.09v9.27H119.64ZM104,116.51c0,23-23.94,22.25-23.94,22.25H40.84V63.44H80c11.93,0,21.3,6.6,21.3,20S89.84,97.83,89.84,97.83C105,97.83,104,116.51,104,116.51ZM162,115.29H123c0,14,13.24,13.08,13.24,13.08,12.53,0,12.09-8.09,12.09-8.09h13.24c0,21.52-25.78,20.05-25.78,20.05-30.89,0-28.91-28.81-28.91-28.81,0-.16,0-28.93,28.91-28.93C166.35,82.6,162,115.29,162,115.29ZM136.13,93.64c-11.62,0-13.23,11.59-13.23,11.59h24.71S147.79,93.64,136.13,93.64Z"/></g></g></svg>