<svg xmlns="http://www.w3.org/2000/svg" viewBox="0 0 200 200"><title>instagram</title><g id="Capa_2" data-name="Capa 2"><g id="Capa_1-2" data-name="Capa 1"><path d="M119.14,100A19.14,19.14,0,1,1,100,80.86,19.14,19.14,0,0,1,119.14,100Z"/><path d="M144.76,66.13a19,19,0,0,0-10.9-10.9,31.77,31.77,0,0,0-10.66-2c-6.06-.28-7.87-.34-23.2-.34s-17.15.06-23.2.33a31.79,31.79,0,0,0-10.66,2,19,19,0,0,0-10.9,10.9,31.78,31.78,0,0,0-2,10.66c-.28,6.05-.34,7.87-.34,23.2s.06,17.15.34,23.2a31.77,31.77,0,0,0,2,10.66,19,19,0,0,0,10.9,10.9,31.73,31.73,0,0,0,10.66,2c6.05.28,7.87.33,23.2.33s17.15-.06,23.2-.33a31.73,31.73,0,0,0,10.66-2,19,19,0,0,0,10.9-10.9,31.8,31.8,0,0,0,2-10.66c.28-6.06.33-7.87.33-23.2s-.06-17.15-.33-23.2A31.73,31.73,0,0,0,144.76,66.13ZM100,129.49A29.49,29.49,0,1,1,129.49,100,29.49,29.49,0,0,1,100,129.49Zm30.65-53.25a6.89,6.89,0,1,1,6.89-6.89A6.89,6.89,0,0,1,130.65,76.24Z"/><path d="M100,0A100,100,0,1,0,200,100,100,100,0,0,0,100,0Zm57.08,123.67a42.13,42.13,0,0,1-2.67,13.94,29.36,29.36,0,0,1-16.79,16.79,42.16,42.16,0,0,1-13.94,2.67c-6.12.28-8.08.35-23.67.35s-17.55-.07-23.68-.35a42.16,42.16,0,0,1-13.94-2.67,29.36,29.36,0,0,1-16.79-16.79,42.12,42.12,0,0,1-2.67-13.94c-.28-6.12-.35-8.08-.35-23.68s.07-17.55.35-23.67a42.13,42.13,0,0,1,2.67-13.94,29.38,29.38,0,0,1,16.8-16.79,42.17,42.17,0,0,1,13.94-2.67c6.12-.28,8.08-.35,23.67-.35s17.55.07,23.67.35a42.18,42.18,0,0,1,13.94,2.67,29.37,29.37,0,0,1,16.79,16.8,42.12,42.12,0,0,1,2.67,13.94c.28,6.12.34,8.08.34,23.67S157.36,117.55,157.08,123.67Z"/></g></g></svg>